<svg width="525" height="94" viewBox="0 0 525 94" fill="none" xmlns="http://www.w3.org/2000/svg">
<path d="M35.5 16C35.5 16 37.4587 34.2823 45.0882 41.9118C52.7177 49.5413 71 51.5 71 51.5C71 51.5 52.7177 53.4587 45.0882 61.0882C37.4587 68.7177 35.5 87 35.5 87C35.5 87 33.5413 68.7177 25.9118 61.0882C18.2823 53.4587 0 51.5 0 51.5C0 51.5 18.2823 49.5413 25.9118 41.9118C33.5413 34.2823 35.5 16 35.5 16Z" fill="#2DCBE8"/>
<path d="M123.8 75.6H130.5V93.7H123.8V75.6ZM124.7 74V19.3L129.5 18.2V74.2L124.7 74ZM123.8 0.499994H130.5V17L123.8 18V0.499994ZM145.9 29.6C145.433 29.1333 144.567 28.5 143.3 27.7C142.1 26.9 140.6 26.1333 138.8 25.4C137.067 24.6667 135.167 24.0333 133.1 23.5C131.033 22.9 128.933 22.6 126.8 22.6C123.067 22.6 120.233 23.3 118.3 24.7C116.433 26.1 115.5 28.0667 115.5 30.6C115.5 32.5333 116.1 34.0667 117.3 35.2C118.5 36.3333 120.3 37.3 122.7 38.1C125.1 38.9 128.1 39.7667 131.7 40.7C136.367 41.8333 140.4 43.2333 143.8 44.9C147.267 46.5 149.9 48.6333 151.7 51.3C153.567 53.9 154.5 57.3667 154.5 61.7C154.5 65.5 153.8 68.7667 152.4 71.5C151 74.1667 149.067 76.3333 146.6 78C144.133 79.6667 141.3 80.9 138.1 81.7C134.967 82.4333 131.667 82.8 128.2 82.8C124.667 82.8 121.1 82.4333 117.5 81.7C113.967 80.9667 110.567 79.9333 107.3 78.6C104.1 77.2 101.133 75.5333 98.4 73.6L104.5 61.7C105.1 62.3 106.167 63.1 107.7 64.1C109.233 65.0333 111.067 66 113.2 67C115.4 67.9333 117.8 68.7333 120.4 69.4C123.067 70.0667 125.733 70.4 128.4 70.4C132.133 70.4 134.967 69.7667 136.9 68.5C138.833 67.2333 139.8 65.4333 139.8 63.1C139.8 60.9667 139.033 59.3 137.5 58.1C135.967 56.9 133.8 55.8667 131 55C128.267 54.0667 125.067 53.0667 121.4 52C116.867 50.7333 113.1 49.3333 110.1 47.8C107.1 46.2 104.867 44.2 103.4 41.8C101.933 39.4 101.2 36.4 101.2 32.8C101.2 27.9333 102.367 23.8667 104.7 20.6C107.033 17.2667 110.167 14.7667 114.1 13.1C118.033 11.3667 122.4 10.5 127.2 10.5C130.533 10.5 133.667 10.8667 136.6 11.6C139.6 12.3333 142.4 13.3 145 14.5C147.6 15.7 149.933 17 152 18.4L145.9 29.6ZM161.479 46C161.479 41.6667 162.246 37.4333 163.779 33.3C165.379 29.1 167.679 25.3 170.679 21.9C173.679 18.4333 177.346 15.7 181.679 13.7C186.012 11.6333 190.946 10.6 196.479 10.6C203.012 10.6 208.646 12.0333 213.379 14.9C218.179 17.7667 221.746 21.5 224.079 26.1L213.479 33.4C212.279 30.7333 210.712 28.6333 208.779 27.1C206.846 25.5 204.779 24.4 202.579 23.8C200.379 23.1333 198.212 22.8 196.079 22.8C192.612 22.8 189.579 23.5 186.979 24.9C184.446 26.3 182.312 28.1333 180.579 30.4C178.846 32.6667 177.546 35.2 176.679 38C175.879 40.8 175.479 43.6 175.479 46.4C175.479 49.5333 175.979 52.5667 176.979 55.5C177.979 58.3667 179.379 60.9333 181.179 63.2C183.046 65.4 185.246 67.1667 187.779 68.5C190.379 69.7667 193.212 70.4 196.279 70.4C198.479 70.4 200.712 70.0333 202.979 69.3C205.246 68.5667 207.346 67.4 209.279 65.8C211.212 64.2 212.712 62.1333 213.779 59.6L225.079 66.1C223.679 69.6333 221.379 72.6333 218.179 75.1C215.046 77.5667 211.512 79.4333 207.579 80.7C203.646 81.9667 199.746 82.6 195.879 82.6C190.812 82.6 186.179 81.5667 181.979 79.5C177.779 77.3667 174.146 74.5667 171.079 71.1C168.079 67.5667 165.712 63.6333 163.979 59.3C162.312 54.9 161.479 50.4667 161.479 46ZM263.755 82.5C258.555 82.5 253.821 81.5 249.555 79.5C245.355 77.5 241.721 74.8 238.655 71.4C235.655 67.9333 233.321 64.0667 231.655 59.8C229.988 55.4667 229.155 51.0333 229.155 46.5C229.155 41.7667 230.021 37.2667 231.755 33C233.555 28.6667 235.988 24.8333 239.055 21.5C242.188 18.1 245.855 15.4333 250.055 13.5C254.321 11.5 258.988 10.5 264.055 10.5C269.188 10.5 273.855 11.5333 278.055 13.6C282.321 15.6667 285.955 18.4333 288.955 21.9C291.955 25.3667 294.288 29.2333 295.955 33.5C297.621 37.7667 298.455 42.1667 298.455 46.7C298.455 51.3667 297.588 55.8667 295.855 60.2C294.121 64.4667 291.688 68.3 288.555 71.7C285.488 75.0333 281.821 77.6667 277.555 79.6C273.355 81.5333 268.755 82.5 263.755 82.5ZM243.155 46.5C243.155 49.5667 243.621 52.5333 244.555 55.4C245.488 58.2667 246.821 60.8333 248.555 63.1C250.355 65.3 252.521 67.0667 255.055 68.4C257.655 69.6667 260.588 70.3 263.855 70.3C267.188 70.3 270.155 69.6333 272.755 68.3C275.355 66.9 277.521 65.0667 279.255 62.8C280.988 60.4667 282.288 57.9 283.155 55.1C284.088 52.2333 284.555 49.3667 284.555 46.5C284.555 43.4333 284.055 40.5 283.055 37.7C282.121 34.8333 280.755 32.3 278.955 30.1C277.221 27.8333 275.055 26.0667 272.455 24.8C269.921 23.4667 267.055 22.8 263.855 22.8C260.455 22.8 257.455 23.5 254.855 24.9C252.321 26.2333 250.188 28.0333 248.455 30.3C246.721 32.5667 245.388 35.1 244.455 37.9C243.588 40.7 243.155 43.5667 243.155 46.5ZM351.048 29.6C350.581 29.1333 349.714 28.5 348.448 27.7C347.248 26.9 345.748 26.1333 343.948 25.4C342.214 24.6667 340.314 24.0333 338.248 23.5C336.181 22.9 334.081 22.6 331.948 22.6C328.214 22.6 325.381 23.3 323.448 24.7C321.581 26.1 320.648 28.0667 320.648 30.6C320.648 32.5333 321.248 34.0667 322.448 35.2C323.648 36.3333 325.448 37.3 327.848 38.1C330.248 38.9 333.248 39.7667 336.848 40.7C341.514 41.8333 345.548 43.2333 348.948 44.9C352.414 46.5 355.048 48.6333 356.848 51.3C358.714 53.9 359.648 57.3667 359.648 61.7C359.648 65.5 358.948 68.7667 357.548 71.5C356.148 74.1667 354.214 76.3333 351.748 78C349.281 79.6667 346.481 80.9 343.348 81.7C340.214 82.4333 336.881 82.8 333.348 82.8C329.814 82.8 326.281 82.4333 322.748 81.7C319.214 80.9667 315.814 79.9333 312.548 78.6C309.281 77.2 306.281 75.5333 303.548 73.6L309.648 61.7C310.248 62.3 311.314 63.1 312.848 64.1C314.381 65.0333 316.248 66 318.448 67C320.648 67.9333 323.048 68.7333 325.648 69.4C328.248 70.0667 330.881 70.4 333.548 70.4C337.281 70.4 340.114 69.7667 342.048 68.5C343.981 67.2333 344.948 65.4333 344.948 63.1C344.948 60.9667 344.181 59.3 342.648 58.1C341.114 56.9 338.981 55.8667 336.248 55C333.514 54.0667 330.281 53.0667 326.548 52C322.081 50.7333 318.348 49.3333 315.348 47.8C312.348 46.2 310.114 44.2 308.648 41.8C307.181 39.4 306.448 36.4 306.448 32.8C306.448 27.9333 307.581 23.8667 309.848 20.6C312.181 17.2667 315.314 14.7667 319.248 13.1C323.181 11.3667 327.548 10.5 332.348 10.5C335.681 10.5 338.814 10.8667 341.748 11.6C344.748 12.3333 347.548 13.3 350.148 14.5C352.748 15.7 355.081 17 357.148 18.4L351.048 29.6ZM427.976 82V35.4L409.776 70.1H402.076L383.876 35.4V82H370.076V11H384.876L405.876 51.4L427.076 11H441.776V82H427.976ZM486.899 82.5C481.699 82.5 476.966 81.5 472.699 79.5C468.499 77.5 464.866 74.8 461.799 71.4C458.799 67.9333 456.466 64.0667 454.799 59.8C453.133 55.4667 452.299 51.0333 452.299 46.5C452.299 41.7667 453.166 37.2667 454.899 33C456.699 28.6667 459.133 24.8333 462.199 21.5C465.333 18.1 468.999 15.4333 473.199 13.5C477.466 11.5 482.133 10.5 487.199 10.5C492.333 10.5 496.999 11.5333 501.199 13.6C505.466 15.6667 509.099 18.4333 512.099 21.9C515.099 25.3667 517.433 29.2333 519.099 33.5C520.766 37.7667 521.599 42.1667 521.599 46.7C521.599 51.3667 520.733 55.8667 518.999 60.2C517.266 64.4667 514.833 68.3 511.699 71.7C508.633 75.0333 504.966 77.6667 500.699 79.6C496.499 81.5333 491.899 82.5 486.899 82.5ZM466.299 46.5C466.299 49.5667 466.766 52.5333 467.699 55.4C468.633 58.2667 469.966 60.8333 471.699 63.1C473.499 65.3 475.666 67.0667 478.199 68.4C480.799 69.6667 483.733 70.3 486.999 70.3C490.333 70.3 493.299 69.6333 495.899 68.3C498.499 66.9 500.666 65.0667 502.399 62.8C504.133 60.4667 505.433 57.9 506.299 55.1C507.233 52.2333 507.699 49.3667 507.699 46.5C507.699 43.4333 507.199 40.5 506.199 37.7C505.266 34.8333 503.899 32.3 502.099 30.1C500.366 27.8333 498.199 26.0667 495.599 24.8C493.066 23.4667 490.199 22.8 486.999 22.8C483.599 22.8 480.599 23.5 477.999 24.9C475.466 26.2333 473.333 28.0333 471.599 30.3C469.866 32.5667 468.533 35.1 467.599 37.9C466.733 40.7 466.299 43.5667 466.299 46.5Z" fill="white"/>
</svg>
